<?xml version="1.0" standalone="no"?>
<!DOCTYPE svg PUBLIC "-//W3C//DTD SVG 20010904//EN"
 "http://www.w3.org/TR/2001/REC-SVG-20010904/DTD/svg10.dtd">
<svg version="1.0" xmlns="http://www.w3.org/2000/svg"
 width="512.000000pt" height="512.000000pt" viewBox="0 0 512.000000 512.000000"
 preserveAspectRatio="xMidYMid meet">

<g transform="translate(0.000000,512.000000) scale(0.100000,-0.100000)"
fill="#000000" stroke="none">
<path d="M1858 4260 c-257 -65 -468 -273 -533 -525 -116 -443 196 -879 658
-921 210 -19 436 72 588 234 79 85 122 156 162 269 29 82 31 98 32 223 0 114
-4 147 -23 210 -76 243 -243 416 -478 496 -109 37 -292 43 -406 14z"/>
<path d="M4015 3276 l-420 -204 -3 -667 c-2 -623 -3 -667 -19 -661 -28 11
-257 8 -323 -4 -244 -44 -425 -159 -496 -315 -23 -51 -26 -66 -22 -139 6 -101
28 -148 112 -232 72 -72 206 -143 331 -175 105 -26 287 -35 396 -20 101 15
244 61 317 103 86 49 167 131 204 206 l33 67 3 651 3 652 202 69 c157 53 204
73 212 89 8 16 3 123 -15 385 -26 349 -27 363 -49 381 -13 10 -28 18 -35 18
-6 0 -200 -92 -431 -204z"/>
<path d="M1770 2515 c-8 -2 -49 -9 -90 -15 -158 -26 -361 -108 -510 -206 -367
-241 -596 -660 -602 -1098 -1 -99 0 -108 31 -170 38 -78 102 -137 177 -166 54
-20 74 -20 1022 -20 l967 0 -52 45 c-69 60 -147 180 -173 263 -24 76 -28 201
-9 277 22 94 77 185 164 270 122 121 269 198 455 238 55 12 100 24 100 27 0 3
-33 44 -73 90 -193 224 -448 375 -752 446 -54 12 -137 17 -355 19 -157 2 -292
2 -300 0z"/>
</g>
</svg>
